<svg width="256" height="192" xmlns="http://www.w3.org/2000/svg"><g><path d="M-116,-47L-127,383L-91,192Z" fill="#fccd3b" stroke="#fccd3b"/><path d="M-116,-47L-91,192L-26,130Z" fill="#fcd235" stroke="#fcd235"/><path d="M-116,-47L-26,130L47,23Z" fill="#fdd233" stroke="#fdd233"/><path d="M-116,-47L47,23L29,-70Z" fill="#fdcd2e" stroke="#fdcd2e"/><path d="M29,-70L47,23L273,-50Z" fill="#ffe235" stroke="#ffe235"/><path d="M29,-70L273,-50L397,-102Z" fill="#ffe837" stroke="#ffe837"/><path d="M273,-50L47,23L188,92Z" fill="#fff23d" stroke="#fff23d"/><path d="M273,-50L188,92L404,32Z" fill="#fff643" stroke="#fff643"/><path d="M273,-50L404,32L397,-102Z" fill="#ffed41" stroke="#ffed41"/><path d="M-26,130L-91,192L77,279Z" fill="#fdde42" stroke="#fdde42"/><path d="M-26,130L77,279L188,92Z" fill="#feed45" stroke="#feed45"/><path d="M-26,130L188,92L47,23Z" fill="#fee93c" stroke="#fee93c"/><path d="M188,92L77,279L182,318Z" fill="#fff94e" stroke="#fff94e"/><path d="M188,92L182,318L266,266Z" fill="#ffff51" stroke="#ffff51"/><path d="M188,92L266,266L373,232Z" fill="#ffff52" stroke="#ffff52"/><path d="M188,92L373,232L404,32Z" fill="#ffff4d" stroke="#ffff4d"/><path d="M-91,192L-127,383L77,279Z" fill="#fdd848" stroke="#fdd848"/><path d="M77,279L-127,383L67,429Z" fill="#fde152" stroke="#fde152"/><path d="M77,279L67,429L182,318Z" fill="#fff256" stroke="#fff256"/><path d="M266,266L182,318L327,338Z" fill="#ffff5a" stroke="#ffff5a"/><path d="M266,266L327,338L373,232Z" fill="#ffff5b" stroke="#ffff5b"/><path d="M67,429L327,338L182,318Z" fill="#ffff5c" stroke="#ffff5c"/></g><filter id="noise"><feTurbulence type="fractalNoise" in="fillPaint" fill="#F00" baseFrequency="0.7" numOctaves="3" stitchTiles="stitch"/><feComponentTransfer><feFuncR type="linear" slope="2" intercept="-.5"/><feFuncG type="linear" slope="2" intercept="-.5"/><feFuncB type="linear" slope="2" intercept="-.5"/></feComponentTransfer><feColorMatrix type="matrix" values="0.3333 0.3333 0.3333 0 0
 0.3333 0.3333 0.3333 0 0
 0.3333 0.3333 0.3333 0 0
 0 0 0 1 0"/></filter><rect opacity="0.2" width="100%" height="100%" filter="url(#noise)"/></svg>
